<svg width="47" height="47" viewBox="0 0 47 47" fill="none" xmlns="http://www.w3.org/2000/svg">
<rect x="0.5" y="0.5" width="46" height="46" rx="5.5" fill="#F1F4FC" stroke="#D9DDE2"/>
<path d="M14.5 11C12.567 11 11 12.567 11 14.5V18C11 18.2761 10.7761 18.5 10.5 18.5C10.2239 18.5 10 18.2761 10 18V14.5C10 12.0147 12.0147 10 14.5 10H18.5C18.7761 10 19 10.2239 19 10.5C19 10.7761 18.7761 11 18.5 11H14.5Z" fill="#2A5DA2"/>
<path d="M33.5 11C35.433 11 37 12.567 37 14.5V18C37 18.2761 37.2239 18.5 37.5 18.5C37.7761 18.5 38 18.2761 38 18V14.5C38 12.0147 35.9853 10 33.5 10H29.5C29.2239 10 29 10.2239 29 10.5C29 10.7761 29.2239 11 29.5 11H33.5Z" fill="#2A5DA2"/>
<path d="M11 33C11 34.933 12.567 36.5 14.5 36.5H18.5C18.7761 36.5 19 36.7239 19 37C19 37.2761 18.7761 37.5 18.5 37.5H14.5C12.0147 37.5 10 35.4853 10 33V29.5C10 29.2239 10.2239 29 10.5 29C10.7761 29 11 29.2239 11 29.5V33Z" fill="#2A5DA2"/>
<path d="M33.5 36.5C35.433 36.5 37 34.933 37 33V29.5C37 29.2239 37.2239 29 37.5 29C37.7761 29 38 29.2239 38 29.5V33C38 35.4853 35.9853 37.5 33.5 37.5H29.5C29.2239 37.5 29 37.2761 29 37C29 36.7239 29.2239 36.5 29.5 36.5H33.5Z" fill="#2A5DA2"/>
<path d="M18 19C18 18.7239 17.7761 18.5 17.5 18.5C17.2239 18.5 17 18.7239 17 19V23.5C17 23.7761 17.2239 24 17.5 24C17.7761 24 18 23.7761 18 23.5V19Z" fill="#2A5DA2"/>
<path d="M24.5 19C24.5 18.7239 24.2761 18.5 24 18.5C23.7239 18.5 23.5 18.7239 23.5 19V26C23.5 26.2761 23.2761 26.5 23 26.5H22C21.7239 26.5 21.5 26.7239 21.5 27C21.5 27.2761 21.7239 27.5 22 27.5H23C23.8284 27.5 24.5 26.8284 24.5 26V19Z" fill="#2A5DA2"/>
<path d="M30.5 19C30.5 18.7239 30.2761 18.5 30 18.5C29.7239 18.5 29.5 18.7239 29.5 19V23.5C29.5 23.7761 29.7239 24 30 24C30.2761 24 30.5 23.7761 30.5 23.5V19Z" fill="#2A5DA2"/>
<path d="M18.7941 29.0956C18.5708 28.9332 18.2581 28.9826 18.0956 29.2059C17.9332 29.4292 17.9826 29.7419 18.2059 29.9044L18.5275 30.1382C21.7677 32.4948 26.1838 32.3933 29.3123 29.8904C29.528 29.7179 29.5629 29.4033 29.3904 29.1877C29.2179 28.972 28.9033 28.9371 28.6877 29.1096C25.9109 31.331 21.9915 31.421 19.1157 29.3295L18.7941 29.0956Z" fill="#2A5DA2"/>
</svg>
